<svg id="SvgjsSvg1021" width="288" height="288" xmlns="http://www.w3.org/2000/svg" version="1.1" xmlns:xlink="http://www.w3.org/1999/xlink" xmlns:svgjs="http://svgjs.com/svgjs"><defs id="SvgjsDefs1022"></defs><g id="SvgjsG1023"><svg xmlns="http://www.w3.org/2000/svg" viewBox="0 0 1792 1792" width="288" height="288"><path d="m1444 548-292 292v824q0 46-33 79t-79 33-79-33-33-79v-384h-64v384q0 46-33 79t-79 33-79-33-33-79V840L348 548q-28-28-28-68t28-68 68-28 68 28l228 228h368l228-228q28-28 68-28t68 28 28 68-28 68zm-324-164q0 93-65.5 158.5T896 608t-158.5-65.5T672 384t65.5-158.5T896 160t158.5 65.5T1120 384z" fill="#1c75e3" class="color000 svgShape"></path></svg></g></svg>